<svg xmlns="http://www.w3.org/2000/svg" width="158" height="158" viewBox="0 0 158 158">
    <g fill="none" fill-rule="evenodd">
        <circle cx="79" cy="79" r="79" fill="#746BDE" fill-rule="nonzero"/>
        <g fill-rule="nonzero">
            <path fill="#231F20" d="M35 66.353v54.931c0 4.834 3.938 8.79 8.752 8.79h70.018c4.814 0 8.752-3.956 8.752-8.79v-54.93H35z" opacity=".2"/>
            <path fill="#FFF" stroke="#F1F1F1" d="M35 62.244v55.054c0 4.845 3.947 8.808 8.772 8.808h70.173c4.825 0 8.772-3.963 8.772-8.808V62.244H35z"/>
            <path fill="#231F20" d="M113.77 42.183H43.752c-4.814 0-8.752 3.956-8.752 8.79v15.38h87.522v-15.38c0-4.834-3.938-8.79-8.752-8.79z" opacity=".2"/>
            <path fill="#DF5263" d="M113.77 37.789H43.752c-4.814 0-8.752 3.955-8.752 8.789v15.38h87.522v-15.38c0-4.834-3.938-8.789-8.752-8.789z"/>
            <path fill="#231F20" d="M52.504 57.564c-2.406 0-4.376-1.977-4.376-4.394V37.789c0-2.417 1.97-4.395 4.376-4.395 2.407 0 4.377 1.978 4.377 4.395v15.38c0 2.418-1.97 4.395-4.377 4.395zM107.206 57.564c-2.407 0-4.376-1.977-4.376-4.394V37.789c0-2.417 1.969-4.395 4.376-4.395s4.376 1.978 4.376 4.395v15.38c0 2.418-1.97 4.395-4.376 4.395z" opacity=".2"/>
            <path fill="#E0E0D1" d="M52.504 53.17c-2.406 0-4.376-1.978-4.376-4.395v-15.38c0-2.417 1.97-4.395 4.376-4.395 2.407 0 4.377 1.978 4.377 4.394v15.381c0 2.417-1.97 4.395-4.377 4.395zM107.206 53.17c-2.407 0-4.376-1.978-4.376-4.395v-15.38c0-2.417 1.969-4.395 4.376-4.395s4.376 1.978 4.376 4.394v15.381c0 2.417-1.97 4.395-4.376 4.395z"/>
        </g>
        <path fill="#4A4A4A" d="M97.478 116h-12.79L79.5 93.331 74.312 116h-12.79L50 76h13.634l5.188 24.468L74.915 76h9.17l6.093 24.468L95.306 76H109z"/>
    </g>
</svg>
